<?xml version="1.0" encoding="utf-8"?>
<!-- Generator: Adobe Illustrator 28.3.0, SVG Export Plug-In . SVG Version: 6.00 Build 0)  -->
<svg version="1.1" id="Ebene_1" xmlns="http://www.w3.org/2000/svg" xmlns:xlink="http://www.w3.org/1999/xlink" x="0px" y="0px"
	 viewBox="0 0 800 800" style="enable-background:new 0 0 800 800;" xml:space="preserve">
<g>
	<g>
		<path d="M566.7,300c0-92-74.6-166.7-166.7-166.7S233.3,208,233.3,300c0,18.4,14.9,33.3,33.3,33.3c18.4,0,33.3-14.9,33.3-33.3
			c0-55.2,44.8-100,100-100s100,44.8,100,100s-44.8,100-100,100c-18.4,0-33.3,14.9-33.3,33.3V500c0,18.4,14.9,33.3,33.3,33.3
			c18.4,0,33.3-14.9,33.3-33.3v-36.7C510.9,447.5,566.7,379.2,566.7,300z"/>
		<circle cx="400" cy="633.3" r="33.3"/>
	</g>
</g>
</svg>
